<?xml version="1.0" encoding="UTF-8"?>
<svg width="27px" height="18px" viewBox="0 0 27 18" version="1.1" xmlns="http://www.w3.org/2000/svg" xmlns:xlink="http://www.w3.org/1999/xlink">
    <!-- Generator: Sketch 62 (91390) - https://sketch.com -->
    <title>icon-cartão-white</title>
    <desc>Created with Sketch.</desc>
    <g id="TESTE---B" stroke="none" stroke-width="1" fill="none" fill-rule="evenodd">
        <g id="V2_maquininhas_1280" transform="translate(-730.000000, -5956.000000)">
            <g id="conta-digital" transform="translate(-444.000000, 5390.000000)">
                <g id="Minha-conta" transform="translate(1098.000000, 314.000000)">
                    <g id="Vantagens" transform="translate(0.000000, 225.000000)">
                        <g id="pague">
                            <g id="Group-9" transform="translate(53.000000, 0.000000)">
                                <g id="08/-icone/recarga-prepago" transform="translate(18.000000, 18.000000)">
                                    <g id="pre-pago" transform="translate(5.625000, 9.000000)">
                                        <g id="Group">
                                            <path d="M0.5,7.25 L25.375,7.25 L25.375,15 C25.375,15.6903559 25.095178,16.3153559 24.642767,16.767767 C24.1903559,17.220178 23.5653559,17.5 22.875,17.5 L3,17.5 C2.30964406,17.5 1.68464406,17.220178 1.23223305,16.767767 C0.779822031,16.3153559 0.5,15.6903559 0.5,15 L0.5,7.25 Z M25.375,5.125 L0.5,5.125 L0.5,3 C0.5,2.30964406 0.779822031,1.68464406 1.23223305,1.23223305 C1.68464406,0.779822031 2.30964406,0.5 3,0.5 L22.875,0.5 C23.5653559,0.5 24.1903559,0.779822031 24.642767,1.23223305 C25.095178,1.68464406 25.375,2.30964406 25.375,3 L25.375,5.125 Z" id="Combined-Shape" stroke="#FFFFFF"></path>
                                            <path d="M17.4375,12.375 L21.9375,12.375 C22.2481602,12.375 22.5,12.6268398 22.5,12.9375 C22.5,13.2481602 22.2481602,13.5 21.9375,13.5 L17.4375,13.5 C17.1268398,13.5 16.875,13.2481602 16.875,12.9375 C16.875,12.6268398 17.1268398,12.375 17.4375,12.375 Z" id="Path" fill="#FFFFFF"></path>
                                        </g>
                                    </g>
                                </g>
                            </g>
                        </g>
                    </g>
                </g>
            </g>
        </g>
    </g>
</svg>