<?xml version="1.0" encoding="UTF-8"?>
<svg width="168px" height="20px" viewBox="0 0 168 20" version="1.1" xmlns="http://www.w3.org/2000/svg" xmlns:xlink="http://www.w3.org/1999/xlink">
    <title>064F7CBC-EF67-4683-A4E2-35277C983BD3@1x</title>
    <defs>
        <linearGradient x1="50%" y1="-1.23137732%" x2="50%" y2="85.7403466%" id="linearGradient-1">
            <stop stop-color="#EED07D" offset="0%"></stop>
            <stop stop-color="#E6D8A7" offset="20%"></stop>
            <stop stop-color="#CDA53A" offset="45%"></stop>
            <stop stop-color="#EED07D" offset="69%"></stop>
            <stop stop-color="#EED07D" offset="100%"></stop>
        </linearGradient>
        <linearGradient x1="50%" y1="112.404053%" x2="50%" y2="12.3887013%" id="linearGradient-2">
            <stop stop-color="#EED07D" offset="0%"></stop>
            <stop stop-color="#E6D8A7" offset="20%"></stop>
            <stop stop-color="#CDA53A" offset="45%"></stop>
            <stop stop-color="#EED07D" offset="69%"></stop>
            <stop stop-color="#EED07D" offset="100%"></stop>
        </linearGradient>
        <linearGradient x1="50.002815%" y1="100%" x2="50.002815%" y2="0%" id="linearGradient-3">
            <stop stop-color="#EED07D" offset="0%"></stop>
            <stop stop-color="#E6D8A7" offset="20%"></stop>
            <stop stop-color="#CDA53A" offset="45%"></stop>
            <stop stop-color="#EED07D" offset="69%"></stop>
            <stop stop-color="#EED07D" offset="100%"></stop>
        </linearGradient>
        <linearGradient x1="50.0244499%" y1="101.900056%" x2="50.0244499%" y2="1.90112044%" id="linearGradient-4">
            <stop stop-color="#EED07D" offset="0%"></stop>
            <stop stop-color="#E6D8A7" offset="20%"></stop>
            <stop stop-color="#CDA53A" offset="45%"></stop>
            <stop stop-color="#EED07D" offset="69%"></stop>
            <stop stop-color="#EED07D" offset="100%"></stop>
        </linearGradient>
        <linearGradient x1="49.958067%" y1="100.048957%" x2="49.958067%" y2="0%" id="linearGradient-5">
            <stop stop-color="#EED07D" offset="0%"></stop>
            <stop stop-color="#E6D8A7" offset="20%"></stop>
            <stop stop-color="#CDA53A" offset="45%"></stop>
            <stop stop-color="#EED07D" offset="69%"></stop>
            <stop stop-color="#EED07D" offset="100%"></stop>
        </linearGradient>
    </defs>
    <g id="V1-e-V2" stroke="none" stroke-width="1" fill="none" fill-rule="evenodd">
        <g id="Desktop" transform="translate(-546.000000, -411.000000)" fill-rule="nonzero">
            <g id="Ativo-3-png" transform="translate(546.000000, 411.000000)">
                <path d="M17.7043197,8.55101833 L16.235963,15.5683159 L13.2572299,15.5683159 L14.7069111,8.679412 C14.7737366,8.38198476 14.8097214,8.07846066 14.8142949,7.77365303 C14.8142949,6.9099138 14.3614154,6.52006394 13.5186861,6.52006394 C12.0293195,6.52006394 11.1655803,8.09580442 10.9064585,9.37040338 L9.60851528,15.5683159 L6.62744773,15.5683159 L8.07479454,8.679412 C8.14272185,8.38217438 8.17872046,8.07853394 8.18217834,7.77365303 C8.18217834,6.88890393 7.75030873,6.52006394 6.8865695,6.52006394 C5.41821282,6.52006394 4.55213916,8.11914872 4.29535182,9.37040338 L3.00207742,15.5683159 L0,15.5683159 L1.7694982,7.14569127 C1.95025319,6.34759088 2.08740953,5.54023878 2.18035794,4.72722144 L4.98167434,4.72722144 L4.6781984,6.60643786 C5.67266572,5.13808118 6.77918571,4.50545055 8.54401504,4.50545055 C9.9026535,4.50545055 11.1118884,5.26180598 11.1772525,6.70915279 C12.0409917,5.34817991 13.3576104,4.50545055 14.9987149,4.50545055 C16.6818392,4.50545055 17.8910741,5.39019965 17.8910741,7.16203228 C17.8688188,7.62764284 17.803962,8.09023623 17.6973164,8.54401504" id="Path" fill="#161410"></path>
                <path d="M41.7863031,12.5452286 C41.5271813,13.7754734 41.3754433,14.6812324 41.2470497,15.5683159 L38.4737464,15.5683159 L38.7538781,13.7007717 C37.7617452,15.1271086 36.4871462,15.801759 34.9114057,15.801759 C32.254824,15.801759 31.4354389,13.7521291 31.4354389,12.1110246 C31.4354389,7.90904999 33.9192728,4.51011942 37.2224918,4.51011942 C38.6464943,4.51011942 39.7903651,5.22212067 40.1148509,6.38933584 L41.4758238,0 L44.4545569,0 L41.7863031,12.5452286 Z M37.869129,6.52006394 C35.5160232,6.52006394 34.5869199,9.78826641 34.5869199,11.6814894 C34.5869199,12.8253603 35.0187895,13.7964833 36.3143984,13.7964833 C38.5391105,13.7964833 39.5545877,10.4932644 39.5545877,8.679412 C39.5545877,7.55655101 39.1647378,6.52006394 37.869129,6.52006394" id="Shape" fill="#161410"></path>
                <g id="Group" transform="translate(18.098648, 3.734924)">
                    <path d="M6.52025452,13.0963184 C3.88313482,13.0963184 1.50568291,11.5077558 0.496500896,9.0713749 C-0.512681121,6.63499399 0.0451478747,3.83059825 1.90987309,1.96587303 C3.77459831,0.101147813 6.57899405,-0.456681182 9.01537497,0.552500835 C11.4517559,1.56168285 13.0403185,3.93913476 13.0403185,6.57625446 C13.0313366,10.1734594 10.1174594,13.0873366 6.52025452,13.0963184" id="Path" fill="#13110C"></path>
                    <path d="M6.52025452,0.467050259 C3.14524912,0.468339413 0.410191165,3.20513904 0.411050317,6.58014458 C0.411909873,9.95515011 3.14836118,12.6905566 6.5233668,12.690127 C9.89837241,12.6896975 12.6341276,9.95359453 12.6341276,6.57858889 C12.630266,3.20396881 9.89487583,0.469623115 6.52025452,0.467050259" id="Path" fill="#13110C"></path>
                    <path d="M11.9431362,5.69383979 C11.9431362,8.68881464 9.51522937,11.1167215 6.52025452,11.1167215 C3.52527967,11.1167215 1.09737284,8.68881464 1.09737284,5.69383979 C1.09737284,2.69886494 3.52527967,0.270958111 6.52025452,0.270958111 C9.51522937,0.270958111 11.9431362,2.69886494 11.9431362,5.69383979" id="Path" fill="#DDE05C"></path>
                    <path d="M6.52025452,11.2521184 C4.24454679,11.2521184 2.19296385,9.88114019 1.32230645,7.77857001 C0.451649041,5.67599984 0.933411781,3.25598372 2.54291404,1.64714931 C4.15241629,0.0383148963 6.57263214,-0.442443438 8.67484079,0.429086509 C10.7770494,1.30061646 12.1471759,3.35276821 12.1462321,5.62847574 C12.1423706,8.73363842 9.62541853,11.2495461 6.52025452,11.2521184 M6.52025452,0.411023931 C3.63873545,0.411023931 1.30280271,2.74695667 1.30280271,5.62847574 C1.30280271,8.50999481 3.63873545,10.8459275 6.52025452,10.8459275 C9.40177359,10.8459275 11.7377063,8.50999481 11.7377063,5.62847574 C11.7351322,2.74802359 9.40070667,0.413598063 6.52025452,0.411023931" id="Shape" fill="#13110C"></path>
                    <path d="M10.0125623,9.1184491 C9.49100039,11.5470077 7.09977417,13.0932013 4.67106999,12.5723179 C2.24236582,12.0514344 0.695504222,9.6606402 1.2157092,7.23179061 C1.73591418,4.80294102 4.12627616,3.2554116 6.55527097,3.77493805 C8.98539278,4.29602455 10.5331631,6.68822318 10.0125623,9.1184491" id="Path" fill="#ACD8DB"></path>
                    <path d="M5.62149884,12.881566 C3.28156751,12.8874589 1.29270001,11.1733496 0.953202311,8.8581704 C0.613704609,6.54299118 2.02670708,4.33003192 4.2698207,3.66388269 C6.51293432,2.99773346 8.90476083,4.08075267 9.88394802,6.20595994 C10.8631352,8.33116721 10.1322321,10.8529811 8.16836234,12.1251954 C7.41056937,12.6186382 6.5257864,12.8813968 5.62149884,12.881566 M5.62149884,3.87998742 C4.04808809,3.87884758 2.59983095,4.73760589 1.84602464,6.11869196 C1.09221833,7.49977802 1.1533795,9.18238727 2.00546624,10.5051007 C2.9500352,11.9632068 4.67958401,12.7092017 6.38835626,12.3955436 C8.09712851,12.0818856 9.44898831,10.7702749 9.81413573,9.07176049 C10.0854629,7.80301101 9.76909647,6.47959211 8.95329889,5.47072244 C8.13750131,4.46185276 6.90959846,3.87552526 5.61216112,3.87531855" id="Shape" fill="#13110C"></path>
                    <path d="M12.3353205,8.3644281 C12.3353205,9.91155243 11.0811284,11.1657445 9.53400409,11.1657445 C7.98687976,11.1657445 6.73268768,9.91155243 6.73268768,8.3644281 C6.73268768,6.81730377 7.98687976,5.56311169 9.53400409,5.56311169 C11.0811284,5.56311169 12.3353205,6.81730377 12.3353205,8.3644281" id="Path" fill="#FFE700"></path>
                    <path d="M9.54334181,11.3618376 C8.33079123,11.362781 7.23711105,10.6330849 6.77243353,9.51310516 C6.30775602,8.39312543 6.56362503,7.10350386 7.42069396,6.24576692 C8.27776288,5.38802997 9.5671847,5.13115627 10.6875261,5.59496105 C11.8078676,6.05876582 12.5384159,7.15187715 12.5384159,8.3644281 C12.5371308,10.0184074 11.1973196,11.3592629 9.54334181,11.3618376 M9.54334181,5.77787928 C8.49602393,5.77787928 7.55187581,6.40889374 7.15130304,7.37657974 C6.75073027,8.34426573 6.97265233,9.4579735 7.71355187,10.198205 C8.4544514,10.9384364 9.56835892,11.1593537 10.5356832,10.7579081 C11.5030074,10.3564625 12.1331694,9.41174555 12.1322261,8.3644281 C12.129652,6.93607255 10.9716991,5.77916377 9.54334181,5.77787928" id="Shape" fill="#13110C"></path>
                </g>
                <path d="M46.5275311,10.990498 C46.4221149,11.3176953 46.3708605,11.6599166 46.3757931,12.0036408 C46.3757931,13.4509876 47.4986541,14.0345952 48.8152728,14.0345952 C49.9941804,14.0133935 51.1447221,13.6694421 52.1418361,13.0401279 L52.0321178,14.9636985 C50.7400773,15.5548328 49.3298477,15.8423088 47.9095139,15.8040934 C45.5540736,15.8040934 43.331696,14.7909506 43.331696,12.1343689 C43.331696,7.83668265 46.5998984,4.51245385 50.4353675,4.51245385 C52.1838558,4.51245385 54.170456,5.13808118 54.170456,7.1246814 C54.170456,10.5376186 49.2261326,10.990498 46.5275311,10.990498 M50.1762457,6.26094217 C48.5421445,6.26094217 47.3469161,7.96741075 46.8076627,9.37040338 C48.7499088,9.37040338 51.4765234,9.02490769 51.4765234,7.31843911 C51.4765234,6.52006394 50.8929158,6.26094217 50.1809146,6.26094217" id="Shape" fill="#161410"></path>
                <path d="M62.3106146,7.31843911 C62.0264649,7.21511123 61.7258504,7.16448142 61.4235311,7.16903557 C59.4602752,7.16903557 58.3584241,9.06926187 57.9919185,10.7967403 L56.9764413,15.5683159 L53.9743639,15.5683159 L55.7672064,7.14569127 C55.9528938,6.35540639 56.097048,5.55593541 56.199076,4.75056574 L59.0003924,4.75056574 L58.5942015,6.97294342 C59.264183,5.63531484 60.5808017,4.49144397 62.1355323,4.49144397 C62.427219,4.48335727 62.7184447,4.51956372 62.9992716,4.59882777 L62.3106146,7.31843911 Z" id="Path" fill="#161410"></path>
                <path d="M73.1913944,8.40394922 L71.681018,15.5729848 L68.6999505,15.5729848 L70.0609233,9.05058643 C70.1591324,8.6836877 70.2170571,8.30717723 70.2336712,7.92772543 C70.2336712,7.10834038 69.8438213,6.52706723 68.8073342,6.52706723 C67.189574,6.52706723 66.4122087,7.97441404 66.1087328,9.37740667 L64.7921141,15.5753192 L61.7923711,15.5753192 L63.5618693,7.15269456 C63.7395446,6.35285902 63.8735832,5.54395129 63.9633913,4.72955587 L66.7647077,4.72955587 L66.4402219,6.65079204 C67.476709,5.20344523 68.5575502,4.51245385 70.3480583,4.51245385 C72.0965466,4.51245385 73.3057815,5.37619307 73.3057815,7.16903557 C73.303559,7.58234238 73.2605527,7.99442104 73.1773878,8.39928036" id="Path" fill="#161410"></path>
                <path d="M76.2565015,15.5683159 L73.254424,15.5683159 L75.5445002,4.72955587 L78.5442432,4.72955587 L76.2565015,15.5683159 Z M78.9551029,2.72894907 L75.9203435,2.72894907 L76.4292493,0.324485817 L79.4640087,0.324485817 L78.9551029,2.72894907 Z" id="Shape" fill="#161410"></path>
                <path d="M89.3619934,8.40394922 L87.851617,15.5729848 L84.8705494,15.5729848 L86.2315223,9.05058643 C86.3297314,8.6836877 86.3876561,8.30717723 86.4042701,7.92772543 C86.4042701,7.10834038 86.0167547,6.52706723 84.9802676,6.52706723 C83.360173,6.52706723 82.5828077,7.97441404 82.2793317,9.37740667 L80.962713,15.5753192 L77.9699733,15.5753192 L79.7394715,7.15269456 C79.9200348,6.35534214 80.0571898,5.5487775 80.1503313,4.73655916 L82.9516477,4.73655916 L82.6271619,6.65779533 C83.6636489,5.21044852 84.7444902,4.51945714 86.5373327,4.51945714 C88.285821,4.51945714 89.4950559,5.38319636 89.4950559,7.17603886 C89.491008,7.58871148 89.4464399,7.999989 89.3619934,8.40394922" id="Path" fill="#161410"></path>
                <path d="M100.784361,8.70042187 L99.3370142,15.5683159 L96.3349368,15.5683159 L97.7169196,9.09027174 C97.8071976,8.70739752 97.858042,8.31628693 97.8686575,7.92305657 C97.8686575,7.10367152 97.4577978,6.52239837 96.4866748,6.52239837 C94.8245604,6.52239837 94.0471951,7.96974518 93.7227093,9.45911173 L92.4271004,15.5706504 L89.4273574,15.5706504 L92.7305764,0 L95.7116439,0 L94.3109857,6.45469989 C95.3031186,5.24546497 96.4913436,4.51245385 98.0460742,4.51245385 C99.7291985,4.51245385 101.003798,5.3551832 101.003798,7.10367152 C101.003798,7.64312867 100.931668,8.18016398 100.78903,8.70042187" id="Path" fill="#161410"></path>
                <path d="M111.945272,11.7235092 C111.648809,12.9853758 111.475251,14.2729886 111.427029,15.5683159 L108.39227,15.5683159 C108.434289,15.0267281 108.625713,14.0135853 108.803129,13.019118 C108.025764,14.4197762 106.751165,15.8040934 104.633837,15.8040934 C102.453479,15.8040934 101.353962,14.359081 101.353962,12.3491365 C101.353962,7.49118696 105.693668,4.49144397 109.816272,4.49144397 C111.069861,4.49144397 112.687621,4.70621156 113.443977,4.98867763 L111.945272,11.7235092 Z M109.25134,6.49905406 C106.767506,6.49905406 104.500774,9.13229149 104.500774,12.0269851 C104.500774,12.9981081 104.84627,13.7964833 105.969131,13.7964833 C107.479507,13.7964833 108.926854,11.7235092 109.531472,9.12762263 L110.115079,6.62277887 C109.837379,6.52777431 109.544667,6.48426318 109.25134,6.4943852" id="Shape" fill="#161410"></path>
                <path d="M119.667568,10.5049365 C119.901011,8.96654693 120.89081,6.39167027 122.746682,6.39167027 C124.095982,6.39167027 124.455485,7.34178342 124.434475,8.49265757 C124.413465,10.3602018 123.463352,13.4906729 121.184948,13.4906729 C119.646558,13.4906729 119.455135,11.8028798 119.667568,10.4955988 M120.342218,6.57375584 L120.690049,4.65018524 L117.916745,4.65018524 C117.769676,5.68433788 117.557243,6.71849052 117.347144,7.72929885 L114.795612,19.7959693 L117.706647,19.7959693 L119.013928,13.6564175 C119.413115,14.7746096 120.258179,15.4702699 121.712529,15.4702699 C125.382254,15.4702699 127.513588,11.7585256 127.513588,8.32224416 C127.513588,6.55041153 126.922978,4.44008651 124.159012,4.44008651 C122.605441,4.46889754 121.17077,5.27792961 120.342218,6.59243128" id="Shape" fill="url(#linearGradient-1)"></path>
                <polygon id="Path" fill="url(#linearGradient-2)" points="130.760781 0.0326820247 127.534598 15.2391613 130.466643 15.2391613 133.692826 0.0326820247"></polygon>
                <path d="M141.286727,4.62917536 L140.000456,10.6986942 C139.703984,12.0503294 138.966304,13.5000107 137.38356,13.5000107 C136.372752,13.5000107 135.982902,12.9093998 135.982902,12.0993524 C135.999253,11.7286393 136.055606,11.3607776 136.150981,11.0021702 L137.497947,4.62917536 L134.579909,4.62917536 L133.081205,11.6534763 C133.005472,12.0496157 132.970274,12.4524372 132.976155,12.8557079 C132.976155,14.6065306 134.178387,15.4702699 135.88719,15.4702699 C137.638013,15.4702699 138.756205,14.5855208 139.661964,13.3412694 L139.365491,15.2391613 L142.085103,15.2391613 C142.177992,14.4383184 142.31201,13.642783 142.486625,12.8557079 L144.195428,4.62917536 L141.286727,4.62917536 Z" id="Path" fill="url(#linearGradient-3)"></path>
                <path d="M144.851403,7.83668265 C144.851403,10.6613434 149.28682,10.556294 149.28682,12.2020674 C149.28682,13.3412694 147.79045,13.6984372 146.861347,13.6984372 C145.892021,13.6991356 144.93958,13.4447221 144.099716,12.9607572 L143.502102,14.9403542 C144.598359,15.2952108 145.744116,15.4732995 146.896364,15.4679354 C149.216787,15.4679354 152.127822,14.6462159 152.127822,11.8402307 C152.127822,9.03424541 147.657388,9.03891427 147.657388,7.49585582 C147.657388,6.44069331 149.006689,6.16756496 149.849418,6.16756496 C150.737426,6.18132431 151.612503,6.38259186 152.417291,6.75817583 L153.049922,4.92331359 C152.055559,4.59772967 151.017069,4.42687878 149.970808,4.4167422 C147.839473,4.4167422 144.835062,5.19644194 144.835062,7.83434822" id="Path" fill="url(#linearGradient-4)"></path>
                <path d="M158.349079,0.0490230371 C158.050272,0.0490230371 157.935885,0.14006582 157.858848,0.445876195 C157.802822,0.662978216 157.74913,0.882414668 157.697773,1.10185112 C157.613733,1.44034352 157.529694,1.80218022 157.438651,2.13600376 C157.375669,2.3328529 157.331889,2.53533619 157.307923,2.74062122 C157.516266,2.77385822 157.727556,2.784814 157.938219,2.77330324 L159.271179,2.77330324 L160.739535,2.77330324 C161.418855,2.77330324 161.981452,2.77330324 162.509034,2.76163109 L163.120654,2.76163109 C163.905023,2.76163109 164.313548,2.8083197 164.521313,3.08845134 C164.729077,3.36858298 164.617024,3.87982322 164.374243,4.73889359 C164.329889,4.88829713 164.285535,5.05170725 164.236512,5.22678953 C164.024079,5.99948597 163.515173,6.3940047 162.726136,6.3940047 L162.672444,6.3940047 C162.035144,6.37999812 161.346487,6.37299483 160.571456,6.37299483 C160.039206,6.37299483 159.504622,6.37299483 158.970037,6.37299483 C157.335936,6.38466698 155.872248,7.40714747 155.405362,8.86149757 C154.919801,10.3765429 154.522947,11.896257 154.100416,13.4860041 C153.944009,14.0812838 153.787602,14.6812324 153.621857,15.2858499 C153.654539,15.2858499 153.682553,15.2858499 153.7129,15.2858499 C153.946343,15.3021909 154.126094,15.3161975 154.315183,15.3161975 L154.723708,15.3161975 L158.787952,15.3161975 C160.009637,15.3161975 161.230544,15.3161975 162.450673,15.3161975 L162.450673,15.3161975 C162.684116,15.3161975 162.903552,15.3325385 163.122989,15.3488795 C163.342425,15.3652205 163.561862,15.3815615 163.767292,15.3815615 C164.034231,15.4089709 164.302867,15.349183 164.532985,15.2111481 C164.794441,15.0057182 164.904159,14.4641304 164.999871,13.941218 C165.04687,13.6815868 165.106862,13.4244764 165.179622,13.170856 L165.20997,13.0774788 C165.20997,13.0564689 165.226311,13.035459 165.233314,13.0167836 C165.277668,12.8720489 165.275334,12.7833405 165.254324,12.7646651 C165.233314,12.7459897 165.156278,12.7063043 165.002205,12.7063043 L163.942374,12.7063043 L157.389628,12.7063043 L157.466664,12.4121661 L157.660422,11.6674828 C157.793484,11.1562426 157.914875,10.6893565 158.0386,10.220136 C158.171451,9.5339247 158.79574,9.05493584 159.49295,9.10427832 L159.534969,9.10427832 C160.067219,9.10427832 160.641489,9.11828491 161.29513,9.11828491 C161.94877,9.11828491 162.649099,9.11828491 163.326084,9.11828491 C164.838795,9.11828491 166.225447,8.21486036 166.697002,6.94959912 C167.26691,5.38462723 167.693528,3.77113569 167.971601,2.12900047 C168.060933,1.65358332 167.937198,1.16290958 167.633108,0.786703024 C167.296775,0.370573296 166.793117,0.125157441 166.258129,0.116721517 C164.785103,0.0910427832 163.286399,0.0840394922 161.836718,0.0747017709 C160.697516,0.0747017709 159.520963,0.0747017709 158.36542,0.0490230371 L158.349079,0.0490230371 Z" id="Path" fill="url(#linearGradient-5)"></path>
            </g>
        </g>
    </g>
</svg>